<?xml version="1.0" encoding="utf-8"?>
<!-- Generator: Adobe Illustrator 24.2.3, SVG Export Plug-In . SVG Version: 6.00 Build 0)  -->
<svg version="1.1" id="_x23_Layer_1" xmlns="http://www.w3.org/2000/svg" xmlns:xlink="http://www.w3.org/1999/xlink" x="0px"
	 y="0px" width="595.3px" height="76.3px" viewBox="0 0 595.3 76.3" style="enable-background:new 0 0 595.3 76.3;"
	 xml:space="preserve">
<style type="text/css">
	.st0{fill:#565C62;}
	.st1{fill:#467CBF;}
	.st2{fill:#E83626;}
	.st3{fill:#F9BB00;}
	.st4{fill:#1EA74A;}
</style>
<polygon class="st0" points="310.9,5.8 317.9,5.8 304,58 297.1,58 285.9,23.6 285.6,23.6 274.3,58 267.5,58 252.9,5.8 260,5.8 
	271,46.9 271.3,46.9 282.6,12.8 288.9,12.8 300.2,46.9 300.5,46.9 "/>
<path class="st0" d="M317.3,40.1c0-5.5,1.7-10.1,5.2-13.7c3.5-3.6,7.9-5.4,13.2-5.4s9.7,1.8,13.1,5.4c3.5,3.6,5.3,8.2,5.3,13.7
	c0,5.5-1.8,10.1-5.3,13.7c-3.5,3.6-7.8,5.4-13.1,5.4c-5.3,0-9.7-1.8-13.2-5.4C319,50.2,317.3,45.6,317.3,40.1L317.3,40.1L317.3,40.1
	z M324,40.1L324,40.1c0,3.8,1.1,7,3.4,9.3c2.2,2.4,5,3.6,8.3,3.6c3.3,0,6.1-1.2,8.3-3.6c2.2-2.4,3.4-5.5,3.4-9.3
	c0-3.8-1.1-6.9-3.4-9.3c-2.3-2.4-5.1-3.6-8.3-3.7c-3.3,0-6,1.2-8.3,3.7C325.1,33.3,324,36.3,324,40.1L324,40.1z"/>
<path class="st0" d="M365.6,58h-6.7V22.3h6.4v5.8h0.3c0.7-1.9,2.1-3.5,4.2-4.9c2.1-1.3,4.2-2,6.2-2c1.9,0,3.6,0.3,5,0.9l-2.1,6.5
	c-0.8-0.3-2.1-0.5-3.9-0.5c-2.5,0-4.7,1-6.6,3.1c-1.9,2-2.8,4.4-2.8,7.2V58z"/>
<polygon class="st0" points="415.6,58 407.5,58 396.3,41.2 390.8,46.6 390.8,58 384.1,58 384.1,5.8 390.8,5.8 390.8,38 406.3,22.3 
	414.9,22.3 414.9,22.5 401,36.4 415.6,57.7 "/>
<path class="st0" d="M444.6,48.1c0,3.1-1.4,5.7-4.1,7.9c-2.7,2.1-6.2,3.2-10.3,3.2c-3.6,0-6.8-0.9-9.5-2.8c-2.7-1.8-4.7-4.4-5.8-7.4
	l6-2.6c0.9,2.1,2.2,3.8,3.8,5c1.6,1.2,3.5,1.8,5.5,1.8c2.1,0,3.9-0.5,5.4-1.4c1.4-0.9,2.2-2,2.2-3.3c0-2.3-1.8-4-5.3-5l-6.1-1.5
	c-7-1.8-10.4-5.1-10.4-10.1c0-3.3,1.3-5.9,4-7.8c2.7-2,6-3,10.2-3c3.2,0,6,0.8,8.6,2.3c2.6,1.5,4.3,3.5,5.4,6.1l-6,2.5
	c-0.7-1.5-1.9-2.8-3.3-3.5c-1.6-0.9-3.4-1.3-5.1-1.3c-1.7,0-3.3,0.4-4.7,1.3c-1.4,0.9-2.1,1.9-2.1,3.2c0,2,1.9,3.5,5.8,4.4l5.4,1.4
	C441.1,39.1,444.6,42.7,444.6,48.1L444.6,48.1z"/>
<path class="st0" d="M467.9,59.2c-2.6,0-5-0.6-7.2-1.7c-2.2-1.1-3.8-2.6-5-4.5h-0.3l0.3,5v15.8H449V22.3h6.4v5h0.3
	c1.2-1.8,2.8-3.3,5-4.5c2.2-1.1,4.6-1.7,7.2-1.7c4.7,0,8.7,1.8,12,5.5c3.4,3.7,5,8.3,5,13.5c0,5.3-1.7,9.8-5,13.5
	C476.7,57.3,472.7,59.2,467.9,59.2L467.9,59.2L467.9,59.2z M466.9,53.1L466.9,53.1c3.2,0,5.9-1.2,8.1-3.7c2.2-2.4,3.3-5.5,3.3-9.3
	c0-3.7-1.1-6.8-3.3-9.3c-2.2-2.4-4.9-3.7-8.1-3.7c-3.3,0-6,1.2-8.2,3.7c-2.1,2.4-3.2,5.5-3.2,9.3c0,3.8,1.1,6.9,3.2,9.3
	C460.9,51.9,463.6,53.1,466.9,53.1L466.9,53.1z"/>
<path class="st0" d="M503.4,21.1c5,0,8.9,1.3,11.8,4c2.9,2.7,4.3,6.3,4.3,10.9V58H513v-5h-0.3c-2.8,4.1-6.5,6.1-11.1,6.1
	c-3.9,0-7.2-1.2-9.9-3.5c-2.7-2.3-4-5.3-4-8.8c0-3.7,1.4-6.6,4.2-8.8c2.8-2.2,6.5-3.3,11.2-3.3c4,0,7.3,0.7,9.9,2.2v-1.5
	c0-2.3-0.9-4.3-2.8-6c-1.8-1.6-4.1-2.5-6.5-2.4c-3.7,0-6.7,1.6-8.9,4.7l-5.9-3.7C492.2,23.4,497,21.1,503.4,21.1L503.4,21.1
	L503.4,21.1z M494.7,47.1L494.7,47.1c0,1.8,0.7,3.2,2.2,4.4c1.5,1.2,3.2,1.8,5.2,1.8c2.8,0,5.3-1,7.6-3.1c2.2-2.1,3.3-4.6,3.3-7.4
	c-2.1-1.7-5-2.5-8.8-2.5c-2.7,0-5,0.7-6.8,2C495.6,43.5,494.7,45.1,494.7,47.1z"/>
<path class="st0" d="M542.2,59.2c-5.3,0-9.7-1.8-13.2-5.4c-3.5-3.7-5.2-8.2-5.2-13.7c0-5.5,1.7-10.1,5.2-13.7
	c3.5-3.6,7.9-5.4,13.2-5.4c3.7,0,6.8,0.9,9.6,2.7c2.7,1.8,4.8,4.3,6.1,7.6l-6.1,2.6c-1.9-4.5-5.2-6.7-10-6.7c-3.1,0-5.7,1.2-8,3.7
	c-2.2,2.5-3.3,5.5-3.3,9.2s1.1,6.7,3.3,9.2c2.2,2.5,4.9,3.7,8,3.7c4.9,0,8.4-2.2,10.4-6.7l6,2.6c-1.3,3.2-3.4,5.7-6.2,7.6
	C549.1,58.3,545.9,59.2,542.2,59.2L542.2,59.2z"/>
<path class="st0" d="M578.3,59.2c-5.3,0-9.6-1.8-13-5.4c-3.4-3.6-5.1-8.2-5.1-13.7c0-5.5,1.7-10,5-13.6c3.3-3.6,7.5-5.4,12.7-5.4
	c5.3,0,9.5,1.7,12.7,5.1c3.1,3.4,4.7,8.2,4.7,14.4l-0.1,0.7h-28.1c0.1,3.5,1.3,6.3,3.5,8.5c2.2,2.1,4.9,3.2,8,3.2
	c4.3,0,7.6-2.1,10.1-6.4l6,2.9c-1.5,2.9-3.8,5.4-6.7,7.1C585.2,58.3,581.9,59.2,578.3,59.2L578.3,59.2z M567.6,35.8L567.6,35.8h20.5
	c-0.2-2.5-1.2-4.5-3-6.2c-1.8-1.6-4.3-2.4-7.3-2.4c-2.5,0-4.7,0.8-6.5,2.3C569.4,31.1,568.2,33.2,567.6,35.8L567.6,35.8z"/>
<path class="st1" d="M30.2,35.1V27h27.1c0.3,1.6,0.4,3.3,0.4,5c0,6.1-1.7,13.6-7,18.9c-5.2,5.4-11.8,8.3-20.6,8.3
	c-16.3,0-30-13.3-30-29.6C0,13.3,13.7,0,30,0c9,0,15.4,3.5,20.3,8.2l-5.7,5.7c-3.5-3.2-8.2-5.8-14.6-5.8c-11.9,0-21.2,9.6-21.2,21.5
	c0,11.9,9.3,21.5,21.2,21.5c7.7,0,12.1-3.1,14.9-5.9c2.3-2.3,3.8-5.6,4.4-10.1L30.2,35.1z"/>
<path class="st2" d="M98.9,40.1c0,11-8.6,19.1-19.1,19.1c-10.5,0-19.1-8.1-19.1-19.1c0-11,8.6-19.1,19.1-19.1S98.9,29.1,98.9,40.1
	L98.9,40.1L98.9,40.1z M90.5,40.1L90.5,40.1c0-6.9-5-11.5-10.8-11.5C74,28.6,69,33.3,69,40.1c0,6.8,5,11.5,10.8,11.5
	S90.5,46.9,90.5,40.1z"/>
<path class="st3" d="M140.6,40.1c0,11-8.6,19.1-19.1,19.1s-19.1-8.1-19.1-19.1c0-11,8.6-19.1,19.1-19.1S140.6,29.1,140.6,40.1
	L140.6,40.1z M132.2,40.1L132.2,40.1c0-6.9-5-11.5-10.8-11.5s-10.8,4.7-10.8,11.5c0,6.8,5,11.5,10.8,11.5
	C127.3,51.7,132.2,46.9,132.2,40.1z"/>
<path class="st1" d="M180.6,22.2v34.2c0,14.1-8.3,19.8-18.1,19.8c-9.2,0-14.8-6.2-16.9-11.3l7.3-3c1.3,3.1,4.5,6.8,9.6,6.8
	c6.3,0,10.2-3.9,10.2-11.2v-2.7h-0.3c-1.9,2.3-5.5,4.3-10,4.3c-9.5,0-18.3-8.3-18.3-19c0-10.8,8.7-19.1,18.3-19.1
	c4.5,0,8.2,2,10,4.3h0.3v-3.1H180.6L180.6,22.2z M173.2,40.2L173.2,40.2c0-6.7-4.5-11.6-10.2-11.6c-5.8,0-10.6,4.9-10.6,11.6
	c0,6.6,4.8,11.5,10.6,11.5C168.7,51.7,173.2,46.8,173.2,40.2z"/>
<rect x="186.4" y="2.2" class="st4" width="8.4" height="55.8"/>
<path class="st2" d="M227.1,46.4l6.5,4.3c-2.1,3.1-7.1,8.4-15.9,8.4c-10.8,0-18.9-8.4-18.9-19.1c0-11.3,8.2-19.1,18-19.1
	c9.9,0,14.7,7.9,16.3,12.1l0.9,2.2l-25.5,10.5c1.9,3.8,5,5.8,9.2,5.8C222,51.7,224.9,49.6,227.1,46.4L227.1,46.4L227.1,46.4z
	 M207.1,39.6L207.1,39.6l17-7.1c-0.9-2.4-3.8-4-7.1-4C212.8,28.4,206.9,32.2,207.1,39.6L207.1,39.6z"/>
</svg>
