<svg height="512" viewBox="0 0 512 512" width="512" xmlns="http://www.w3.org/2000/svg"><g id="Flat"><path d="m256 256 85.38879 43.50776a107.81268 107.81268 0 0 0 145.00773-47.11587v-.00011a40.16764 40.16764 0 0 0 2.41207-30.64823 40.16766 40.16766 0 0 0 -40.97833-27.65909l-1.619.11218 1.37574-.86087a40.16765 40.16765 0 0 0 16.89456-46.46312v-.00005a40.16768 40.16768 0 0 0 -19.966-23.37716l-.00011-.00005a107.81267 107.81267 0 0 0 -145.00773 47.11586z" fill="#eb75af"/><path d="m256 256-43.50776-85.38879a107.81267 107.81267 0 0 0 -145.00773-47.11586l-.00011.00005a40.16768 40.16768 0 0 0 -19.966 23.37716v.00005a40.16765 40.16765 0 0 0 16.8946 46.46312l1.37574.86087-1.619-.11218a40.16766 40.16766 0 0 0 -40.97833 27.65909 40.16765 40.16765 0 0 0 2.41207 30.64823l.00005.00011a107.81268 107.81268 0 0 0 145.00773 47.11587z" fill="#f08bbd"/><path d="m256 256-14.99175 94.6542a107.81266 107.81266 0 0 0 89.61975 123.35094h.00012a40.16763 40.16763 0 0 0 29.89356-7.17681 40.16766 40.16766 0 0 0 13.64232-47.51984l-.607-1.50509 1.24386 1.04238a40.16764 40.16764 0 0 0 49.40976 1.70978 40.16767 40.16767 0 0 0 16.06318-26.21271v-.00012a107.81268 107.81268 0 0 0 -89.6197-123.35095z" fill="#f08bbd"/><path d="m256 256 67.76492-67.76492a107.81269 107.81269 0 0 0 0-152.47016l-.00008-.00008a40.16766 40.16766 0 0 0 -28.40284-11.76484 40.16766 40.16766 0 0 0 -38.96835 30.42557l-.39365 1.57443-.39361-1.57443a40.16766 40.16766 0 0 0 -38.96839-30.42557 40.16766 40.16766 0 0 0 -28.40283 11.76484l-.00008.00008a107.81269 107.81269 0 0 0 0 152.47016z" fill="#f9c"/><path d="m256 256-94.6542 14.99175a107.81268 107.81268 0 0 0 -89.6197 123.35095v.00012a40.16767 40.16767 0 0 0 16.06318 26.21271 40.16764 40.16764 0 0 0 49.40976-1.70978l1.24386-1.04238-.607 1.50509a40.16766 40.16766 0 0 0 13.64236 47.51983 40.16763 40.16763 0 0 0 29.89356 7.17681h.00012a107.81266 107.81266 0 0 0 89.61981-123.3509z" fill="#f9c"/><path d="m277.2666 280.64551-8.32275-16.64551h13.80127a116.48774 116.48774 0 0 0 82.91211-34.34326l-11.31446-11.31348a100.59072 100.59072 0 0 1 -71.59765 29.65674h-15.20166l5.90185-15.73779a80.661 80.661 0 0 0 -11.04492-77.062l-12.80078 9.5996a64.73292 64.73292 0 0 1 8.86523 61.84424l-8.00854 21.35595h-3.80884a160.44454 160.44454 0 0 1 -82.53125-22.85986l-8.23242 13.71972a176.43718 176.43718 0 0 0 89.51587 25.1189l-1.25708 4.39966a80.35988 80.35988 0 0 1 -47.11328 52.19385l5.9414 14.85546a96.52941 96.52941 0 0 0 54.97168-57.6538l5.01367 10.02734a72.32664 72.32664 0 0 0 65.04395 40.19873v-16a56.414 56.414 0 0 1 -50.7334-31.35449z" fill="#e6e6e6"/><g fill="#fc7"><circle cx="368" cy="216" r="16"/><circle cx="248" cy="152" r="16"/><circle cx="152" cy="224" r="16"/><circle cx="192" cy="328" r="16"/><circle cx="336" cy="320" r="16"/></g></g></svg>