<svg xmlns="http://www.w3.org/2000/svg" height="480" width="480"><rect id="backgroundrect" width="100%" height="100%" x="0" y="0" fill="none" stroke="none"/><g class="currentLayer" style=""><title>Layer 1</title><path d="m408,71.23076921701431 h-32 v24 c0,13.253906 -10.746094,24 -24,24 s-24,-10.746094 -24,-24 v-24 h-56 v24 c0,13.253906 -10.746094,24 -24,24 s-24,-10.746094 -24,-24 v-24 h-56 v24 c0,13.253906 -10.746094,24 -24,24 s-24,-10.746094 -24,-24 v-24 h-32 c-17.671875,0 -32,14.328125 -32,32 v64 h384 v-64 c0,-17.671875 -14.328125,-32 -32,-32 zm0,0 " fill="#e6594f" id="svg_8" class="" fill-opacity="1"/><g fill="#000000" id="svg_2" class="" fill-opacity="1"><path d="m224 216h48c4.417969 0 8 3.582031 8 8v48c0 4.417969-3.582031 8-8 8h-48c-4.417969 0-8-3.582031-8-8v-48c0-4.417969 3.582031-8 8-8zm0 0" id="svg_3" fill="#000000" fill-opacity="1"/><path d="m112 216h48c4.417969 0 8 3.582031 8 8v48c0 4.417969-3.582031 8-8 8h-48c-4.417969 0-8-3.582031-8-8v-48c0-4.417969 3.582031-8 8-8zm0 0" id="svg_4" fill="#000000" fill-opacity="1"/><path d="m336 216h48c4.417969 0 8 3.582031 8 8v48c0 4.417969-3.582031 8-8 8h-48c-4.417969 0-8-3.582031-8-8v-48c0-4.417969 3.582031-8 8-8zm0 0" id="svg_5" fill="#000000" fill-opacity="1"/><path d="m224 328h48c4.417969 0 8 3.582031 8 8v24h-64v-24c0-4.417969 3.582031-8 8-8zm0 0" id="svg_6" fill="#000000" fill-opacity="1"/><path d="m112 328h48c4.417969 0 8 3.582031 8 8v24h-64v-24c0-4.417969 3.582031-8 8-8zm0 0" id="svg_7" fill="#000000" fill-opacity="1"/></g><path d="m376 408v-48h-368v48c0 17.671875 14.328125 32 32 32h368c-17.671875 0-32-14.328125-32-32zm0 0" fill="#e6594f" id="svg_9" class="" fill-opacity="1"/><path d="m440 192v216c0 17.671875-14.328125 32-32 32h-320v16c0 8.835938 7.164062 16 16 16h352c8.835938 0 16-7.164062 16-16v-264zm0 0" fill="#ffffff" id="svg_10" class="" fill-opacity="1"/><path d="m440 72h-32c17.671875 0 32 14.328125 32 32v88h32v-88c0-17.671875-14.328125-32-32-32zm0 0" fill="#ffffff" id="svg_11" class="" fill-opacity="1"/><path d="m440 64h-56v-32c0-17.671875-14.328125-32-32-32s-32 14.328125-32 32v32h-40v-32c0-17.671875-14.328125-32-32-32s-32 14.328125-32 32v32h-40v-32c0-17.671875-14.328125-32-32-32s-32 14.328125-32 32v32h-24c-22.089844 0-40 17.910156-40 40v248h-40c-4.417969 0-8 3.582031-8 8v48c0 22.089844 17.910156 40 40 40h40v8c0 13.253906 10.746094 24 24 24h352c13.253906 0 24-10.746094 24-24v-352c0-22.089844-17.910156-40-40-40zm24 40v80h-16v-80c.046875-8.664062-2.765625-17.097656-8-24 13.253906 0 24 10.746094 24 24zm-128-72c0-8.835938 7.164062-16 16-16s16 7.164062 16 16v64c0 8.835938-7.164062 16-16 16s-16-7.164062-16-16zm-104 0c0-8.835938 7.164062-16 16-16s16 7.164062 16 16v64c0 8.835938-7.164062 16-16 16s-16-7.164062-16-16zm-104 0c0-8.835938 7.164062-16 16-16s16 7.164062 16 16v64c0 8.835938-7.164062 16-16 16s-16-7.164062-16-16zm-64 72c0-13.253906 10.746094-24 24-24h24v16c0 17.671875 14.328125 32 32 32s32-14.328125 32-32v-16h40v16c0 17.671875 14.328125 32 32 32s32-14.328125 32-32v-16h40v16c0 17.671875 14.328125 32 32 32s32-14.328125 32-32v-16h24c13.253906 0 24 10.746094 24 24v56h-368zm0 72h368v232c0 13.253906-10.746094 24-24 24s-24-10.746094-24-24v-48c0-4.417969-3.582031-8-8-8h-88v-16c0-8.835938-7.164062-16-16-16h-48c-8.835938 0-16 7.164062-16 16v16h-32v-16c0-8.835938-7.164062-16-16-16h-48c-8.835938 0-16 7.164062-16 16v16h-32zm208 176h-48v-16h48zm-112 0h-48v-16h48zm-144 56v-40h352v40c0 8.65625 2.808594 17.074219 8 24h-336c-13.253906 0-24-10.746094-24-24zm440 56h-352c-4.417969 0-8-3.582031-8-8v-8h312c22.089844 0 40-17.910156 40-40v-208h16v256c0 4.417969-3.582031 8-8 8zm0 0" fill="#e6594f" id="svg_18" class="" fill-opacity="1"/><path d="m107.2884559240832,320.30768769979477 h61.2692306627452 c5.639282535872036,0 10.211538443790866,3.582031 10.211538443790866,8 v24 h-81.69230755032693 v-24 c0,-4.417969 4.572255907918832,-8 10.211538443790866,-8 zm0,0 " id="svg_23" fill="#000000" fill-opacity="1" class="" transform="translate(-0.7692307829856873,0) "/><path d="m219.50000033455152,319.5384569168091 h60.692307319497594 c5.586181922416947,0 10.1153845532496,3.582031 10.1153845532496,8 v24 h-80.9230764259968 v-24 c0,-4.417969 4.529202630832653,-8 10.1153845532496,-8 zm0,0 " fill="#000000" fill-opacity="1" class="" id="svg_12" transform="translate(-1.5384615659713745,0) "/><rect fill="#000000" stroke-dashoffset="" fill-rule="nonzero" id="svg_1" x="221" y="129" width="0" height="1" style="color: rgb(230, 89, 79);"/></g></svg>