<svg xmlns="http://www.w3.org/2000/svg" enable-background="new 0 0 512 512" height="512" width="512"><rect id="backgroundrect" width="100%" height="100%" x="0" y="0" fill="none" stroke="none"/><g class="currentLayer" style=""><title>Layer 1</title><g id="svg_2" class="" fill="#e6594f" fill-opacity="1"><path d="m256 87.757c-24.713-38.462-67.874-63.943-116.987-63.943-76.743 0-138.955 61.155-138.955 138.954 0 22.323-10.643 153.646 255.942 325.418l20-218.004z" fill="#e6594f" id="svg_3" fill-opacity="1"/><path d="m511.942 162.768c0-77.8-62.212-138.955-138.955-138.955-49.113 0-92.274 25.481-116.987 63.943v400.43c266.585-171.772 255.942-303.095 255.942-325.418z" fill="#e6594f" id="svg_4" fill-opacity="1"/></g><g id="svg_5" class="" fill="#ffffff" fill-opacity="1"><path d="m224.133 186.303v37.83h-37.83v63.734h37.83v37.83h31.867l20-69.697-20-69.697z" fill="#ffffff" id="svg_6" fill-opacity="1"/><path d="m287.867 224.133v-37.83h-31.867v139.394h31.867v-37.83h37.83v-63.734z" fill="#ffffff" id="svg_7" fill-opacity="1"/></g></g></svg>