<svg xmlns="http://www.w3.org/2000/svg" xmlns:xlink="http://www.w3.org/1999/xlink" version="1.1" style="" xml:space="preserve" width="512" height="512"><rect id="backgroundrect" width="100%" height="100%" x="0" y="0" fill="none" stroke="none"/>





















<g class="currentLayer" style=""><title>Layer 1</title><g id="svg_1" class="" fill="#919191" fill-opacity="1">
	<g id="svg_2" fill="#919191" fill-opacity="1">
		<path d="M165,90h-60c-8.284,0-15,6.716-15,15s6.716,15,15,15h60c8.284,0,15-6.716,15-15S173.284,90,165,90z" id="svg_3" fill="#919191" fill-opacity="1"/>
	</g>
</g><g id="svg_4" class="" fill="#919191" fill-opacity="1">
	<g id="svg_5" fill="#919191" fill-opacity="1">
		<path d="M165,180h-60c-8.284,0-15,6.716-15,15s6.716,15,15,15h60c8.284,0,15-6.716,15-15S173.284,180,165,180z" id="svg_6" fill="#919191" fill-opacity="1"/>
	</g>
</g><g id="svg_7" class="" fill="#919191" fill-opacity="1">
	<g id="svg_8" fill="#919191" fill-opacity="1">
		<path d="M197,272h-92c-8.284,0-15,6.716-15,15s6.716,15,15,15h92c8.284,0,15-6.716,15-15S205.284,272,197,272z" id="svg_9" fill="#919191" fill-opacity="1"/>
	</g>
</g><g id="svg_10" class="" fill="#919191" fill-opacity="1">
	<g id="svg_11" fill="#919191" fill-opacity="1">
		<path d="M377,362H105c-8.284,0-15,6.716-15,15s6.716,15,15,15h272c8.284,0,15-6.716,15-15S385.284,362,377,362z" id="svg_12" fill="#919191" fill-opacity="1"/>
	</g>
</g><g id="svg_13" class="" fill-opacity="1" fill="#e6594f">
	<g id="svg_14" fill="#e6594f">
		<path d="M437,0H75C50.187,0,30,20.187,30,45v377H15c-8.284,0-15,6.716-15,15v15c0,33.084,26.916,60,60,60h332    c33.084,0,60-26.916,60-60V120h45c8.284,0,15-6.716,15-15V75C512,33.645,478.355,0,437,0z M60,482c-16.542,0-30-13.458-30-30h302    c0,10.92,2.934,21.17,8.052,30H60z M422,105v347c0,16.542-13.458,30-30,30s-30-13.458-30-30v-15c0-8.284-6.716-15-15-15H60V45    c0-8.271,6.729-15,15-15h347V105z M482,90h-30V32.57c17.461,6.191,30,22.874,30,42.43V90z" id="svg_15" fill="#e6594f"/>
	</g>
</g><g id="svg_16" class="" fill-opacity="1" fill="#000000">
	<g id="svg_17" fill="#000000" fill-opacity="1">
		<path d="M302,60c-49.626,0-90,40.374-90,90c0,26.595,11.599,50.529,30,67.02V317c0,5.532,3.045,10.615,7.922,13.225    c4.877,2.61,10.796,2.324,15.398-0.744L302,305.028l36.68,24.453c2.51,1.673,5.411,2.519,8.321,2.519    c2.427,0,4.859-0.588,7.077-1.775c4.877-2.61,7.922-7.693,7.922-13.225v-99.98c18.401-16.491,30-40.425,30-67.02    C392,100.374,351.626,60,302,60z M332,288.972l-21.68-14.453c-5.039-3.358-11.602-3.358-16.641,0L272,288.972v-54.12    c9.388,3.329,19.485,5.148,30,5.148s20.612-1.819,30-5.148V288.972z M302,210c-33.084,0-60-26.916-60-60s26.916-60,60-60    s60,26.916,60,60S335.084,210,302,210z" id="svg_18" fill="#000000" fill-opacity="1"/>
	</g>
</g><g id="svg_19">
</g><g id="svg_20">
</g><g id="svg_21">
</g><g id="svg_22">
</g><g id="svg_23">
</g><g id="svg_24">
</g><g id="svg_25">
</g><g id="svg_26">
</g><g id="svg_27">
</g><g id="svg_28">
</g><g id="svg_29">
</g><g id="svg_30">
</g><g id="svg_31">
</g><g id="svg_32">
</g><g id="svg_33">
</g></g></svg>