<svg xmlns="http://www.w3.org/2000/svg" xmlns:xlink="http://www.w3.org/1999/xlink" version="1.1" style="enable-background:new 0 0 512 512;" xml:space="preserve" width="512" height="512"><rect id="backgroundrect" width="100%" height="100%" x="0" y="0" fill="none" stroke="none"/>




























<g class="currentLayer" style=""><title>Layer 1</title><path style="" d="M350.736,29.805h-59.609c-4.409,0-7.983,3.573-7.983,7.983v138.378c0,4.41,3.574,7.983,7.983,7.983  h59.609c4.409,0,7.983-3.573,7.983-7.983V37.788C358.719,33.378,355.145,29.805,350.736,29.805z" id="svg_1" class="" fill-opacity="1" fill="#e6594f"/><path style="" d="M358.719,37.788c0-4.41-3.574-7.983-7.983-7.983h-59.609c-4.409,0-7.983,3.573-7.983,7.983v28.03  h75.576V37.788z" id="svg_2" class="" fill-opacity="1" fill="#b7302d"/><path style="" d="M386.217,17.031H254.226c-4.409,0-7.983,3.573-7.983,7.983v23.418c0,4.41,3.574,7.983,7.983,7.983  h131.992c4.409,0,7.983-3.573,7.983-7.983V25.015C394.201,20.605,390.627,17.031,386.217,17.031z" id="svg_3" class="" fill-opacity="1" fill="#e6594f"/>
	<path style="" d="M405.023,0c-20.837,0-37.788,16.951-37.788,37.788s16.951,37.788,37.788,37.788   c20.837,0,37.788-16.951,37.788-37.788S425.859,0,405.023,0z" id="svg_5" fill="#e6594f" class=""/>
	<path style="" d="M236.84,0c-20.837,0-37.788,16.951-37.788,37.788s16.951,37.788,37.788,37.788   s37.788-16.951,37.788-37.788S257.677,0,236.84,0z" id="svg_6" fill="#e6594f" class=""/>
<path style="" d="M121.955,318.374c-3.134-4.322-9.791-4.322-12.926,0c-6.474,8.926-63.258,88.247-63.258,123.905  c0,38.445,31.277,69.721,69.721,69.721s69.721-31.277,69.721-69.721C185.214,406.621,128.43,327.3,121.955,318.374z" id="svg_7" class="" fill-opacity="1" fill="#b7302d"/><path style="" d="M140.507,496.565c-38.445,0-69.721-31.277-69.721-69.721c0-27.32,33.332-80.268,51.832-107.553  c-1.625-2.256-3.597-3.958-6.49-4.189c-2.748-0.219-5.48,1.039-7.099,3.271c-6.474,8.926-63.258,88.247-63.258,123.905  c0,38.445,31.277,69.721,69.721,69.721c18.685,0,35.664-7.403,48.195-19.412C156.43,495.155,148.632,496.565,140.507,496.565z" id="svg_8" class="" fill-opacity="1" fill="#b7302d"/><g id="svg_9" class="" fill="#ffffff" fill-opacity="1">
	<circle style="" cx="124.00800323486328" cy="465.6960144042969" r="19.15999984741211" id="svg_10" fill="#ffffff" fill-opacity="1"/>
	<circle style="" cx="141.0399932861328" cy="423.1180114746094" r="12.77299976348877" id="svg_11" fill="#ffffff" fill-opacity="1"/>
</g><path style="" d="M471.019,127.734h-90.394c-14.913-17.639-36.448-27.676-59.693-27.676s-44.78,10.037-59.693,27.676  H111.235c-27.879,0-50.561,22.682-50.561,50.561v100.058c0,0.158,0.004,0.315,0.01,0.424c0.038,4.381,3.601,7.914,7.983,7.914  h85.138c4.381,0,7.944-3.484,7.983-7.866c0.005-0.156,0.01-0.314,0.01-0.472v-49.497h99.442  c14.913,17.639,36.448,27.676,59.693,27.676s44.78-10.037,59.693-27.676h90.393c4.409,0,7.983-3.573,7.983-7.983v-85.156  C479.002,131.307,475.428,127.734,471.019,127.734z" id="svg_12" class="" fill-opacity="1" fill="#e6594f"/><path style="" d="M60.674,278.353c0,0.158,0.004,0.315,0.01,0.424c0.038,4.381,3.601,7.914,7.983,7.914h85.138  c4.381,0,7.944-3.484,7.983-7.866c0.005-0.156,0.01-0.314,0.01-0.472V236.84H60.674V278.353z" id="svg_13" class="" fill-opacity="1" fill="#b7302d"/><path style="fill:#FD9D7E;" d="M175.102,246.952H40.981c-4.409,0-7.983,3.573-7.983,7.983v36.191c0,4.41,3.574,7.983,7.983,7.983  h134.121c4.409,0,7.983-3.573,7.983-7.983v-36.191C183.085,250.526,179.511,246.952,175.102,246.952z" id="svg_14"/><g id="svg_15" class="" fill-opacity="1" fill="#e6594f">
	<path style="" d="M40.981,246.952c-4.409,0-7.983,3.573-7.983,7.983v36.191c0,4.41,3.574,7.983,7.983,7.983h98.994   v-52.158H40.981z" id="svg_16" fill="#e6594f"/>
	<path style="" d="M175.102,246.952h-6.032v52.158h6.032c4.409,0,7.983-3.573,7.983-7.983v-36.191   C183.085,250.526,179.511,246.952,175.102,246.952z" id="svg_17" fill="#e6594f"/>
</g><path style="fill:#C74B38;" d="M40.981,246.952c-4.409,0-7.983,3.573-7.983,7.983v36.191c0,4.41,3.574,7.983,7.983,7.983H72.56  v-52.158H40.981z" id="svg_18"/><g id="svg_22">
</g><g id="svg_23">
</g><g id="svg_24">
</g><g id="svg_25">
</g><g id="svg_26">
</g><g id="svg_27">
</g><g id="svg_28">
</g><g id="svg_29">
</g><g id="svg_30">
</g><g id="svg_31">
</g><g id="svg_32">
</g><g id="svg_33">
</g><g id="svg_34">
</g><g id="svg_35">
</g><g id="svg_36">
</g></g></svg>