<svg xmlns="http://www.w3.org/2000/svg" enable-background="new 0 0 512 512" height="512" width="512"><rect id="backgroundrect" width="100%" height="100%" x="0" y="0" fill="none" stroke="none"/><g class="currentLayer" style=""><title>Layer 1</title><path d="m402.165 52.711h-292.33c-4.402 0-8.584 1.927-11.443 5.274l-81.369 95.238h477.952l-81.369-95.238c-2.858-3.347-7.039-5.274-11.441-5.274z" fill="#b7302d" id="svg_2" class="" fill-opacity="1"/><path d="m494.973 153.222h-25.37l-81.366-95.237c-2.865-3.347-7.046-5.277-11.449-5.277h25.38c4.403 0 8.584 1.93 11.439 5.277z" fill="#b7302d" id="svg_3" class="" fill-opacity="1"/><path d="m17.024 153.223h477.952v358.777h-477.952z" fill="#e6594f" id="svg_4" class="" fill-opacity="1"/><g id="svg_6" class="" fill="#ffffff" fill-opacity="1"><path d="m431.45 403.594h-350.9c-3.957 0-7.164-3.208-7.164-7.164v-90.851c0-3.957 3.208-7.164 7.164-7.164h350.9c3.957 0 7.164 3.208 7.164 7.164v90.851c.001 3.956-3.207 7.164-7.164 7.164z" fill="#ffffff" id="svg_7" fill-opacity="1"/></g><g id="svg_8" class="" fill="#ffffff" fill-opacity="1"><path d="m438.616 305.594v90.811c0 3.971-3.219 7.191-7.191 7.191h-24.039c3.961 0 7.181-3.219 7.181-7.191v-90.811c0-3.961-3.219-7.181-7.181-7.181h24.039c3.972.001 7.191 3.22 7.191 7.181z" fill="#ffffff" id="svg_9" fill-opacity="1"/></g><path d="m469.601 153.223h25.375v358.777h-25.375z" fill="#e6594f" id="svg_17" class="" fill-opacity="1"/><path d="m351.943 89.157h-191.886c-1.189 0-2.3.591-2.964 1.576l-16.512 24.483c-1.602 2.375.1 5.575 2.964 5.575h224.909c2.864 0 4.566-3.2 2.964-5.575l-16.512-24.483c-.664-.986-1.775-1.576-2.963-1.576z" fill="#ffffff" id="svg_18" class="" fill-opacity="1"/><path d="m320.242 120.79c8.354-12.365 13.231-27.271 13.231-43.316.001-42.788-34.686-77.474-77.473-77.474s-77.474 34.686-77.474 77.474c0 14.557 4.015 28.176 10.997 39.81l2.338 3.506z" fill="#e6594f" id="svg_19" class="" fill-opacity="1"/><path d="m333.478 77.478c0 16.037-4.887 30.948-13.241 43.314h-25.288c8.354-12.366 13.241-27.277 13.241-43.314 0-38.483-28.05-70.409-64.829-76.444 4.115-.682 8.331-1.034 12.639-1.034 42.791 0 77.478 34.687 77.478 77.478z" fill="#e6594f" id="svg_20" class="" fill-opacity="1"/><path d="m17.024 153.223h477.952v42.429h-477.952z" fill="#e6594f" id="svg_21" class="" fill-opacity="1"/><path d="m469.601 153.223h25.375v42.429h-25.375z" fill="#e6594f" id="svg_22" class="" fill-opacity="1"/></g></svg>